<?xml version="1.0" encoding="UTF-8"?>
<svg id="Layer_1" data-name="Layer 1" xmlns="http://www.w3.org/2000/svg" viewBox="0 0 727.96 411.75">
  <defs>
    <style>
      .cls-1 {
        fill: #263640;
      }

      .cls-2 {
        fill: #be6128;
      }
    </style>
  </defs>
  <g>
    <path class="cls-2" d="M175.89,239.47h-3.88c.65-.02,1.31-.04,1.99-.04.64,0,1.26.02,1.89.04Z"/>
    <path class="cls-2" d="M198.42,184.74v.06h-.02c-1.18-.05-2.36-.06-3.56-.06h3.58Z"/>
    <path class="cls-2" d="M50.18,73.56c0,10.39,8.42,18.82,18.81,18.82h0s129.43-.01,129.43-.01c38.11.02,68.97,32.93,68.97,73.55,0,14.26-3.81,27.57-10.39,38.83-5.5,9.42-12.95,17.42-21.71,23.34-10.66,7.19-23.3,11.38-36.87,11.38h-22.53c-.63-.02-1.25-.04-1.89-.04-.68,0-1.34.02-1.99.04-34.47,1.21-49.71,34.21-49.71,67.34s15.83,67.38,51.7,67.38c18.46,0,40.23-4.47,46-41.9.29-1.91-1.18-3.63-3.08-3.63h-41.2c-1.72,0-3.12-1.4-3.12-3.12v-26.82c0-1.72,1.4-3.12,3.12-3.12h80.18c1.72,0,3.12,1.4,3.12,3.12v109.89c0,1.73-1.4,3.14-3.12,3.14h-31.29c-1.72,0-3.12-1.41-3.12-3.14v-5.94c0-2.65-3.09-4.11-5.11-2.42-11.06,9.2-25.64,11.5-42.38,11.5-56.74,0-89.25-49.47-89.25-104.94,0-15.7,2.6-30.92,7.62-44.68,0-.01,0-.03.01-.03,2.26-7.97,5.42-15.54,9.39-22.63,18.17-32.66,53.06-54.73,93.07-54.73,1.2,0,2.38.01,3.56.06h.02v-.06c10.39-.02,18.8-8.44,18.8-18.82s-8.41-18.8-18.8-18.82H68.99c-38.1.01-68.99-32.92-68.99-73.54S30.89.01,68.99.01h0s193.41-.01,193.41-.01c2.77,0,5,2.24,5,5v44.74c0,2.76-2.23,5-5,5H68.99c-10.39,0-18.81,8.42-18.81,18.82Z"/>
    <rect class="cls-2" x="198.4" y="184.74" width=".02" height=".06"/>
  </g>
  <g>
    <path class="cls-1" d="M439.54,178.78v60.21h-30.92v-60.21c0-24.24-3.24-32.78-17.2-32.78s-19.04,11.88-19.04,32.78v60.21h-30.91v-60.21c0-24.24-3.23-32.78-17.18-32.78s-19.04,11.88-19.04,32.78v65.9c.01.11.02.22.02.33v163.21c0,1.77-1.39,3.2-3.13,3.2h-24.65c-1.74,0-3.14-1.43-3.14-3.2v-169.23h-.02v-123.9h30.92v10.27c5.18-6.22,12.45-10.27,22.72-10.27,19.15,0,30.22,7.96,36.57,19.96,6.12-11.54,15.81-19.96,30.58-19.96,37.84,0,44.42,30.91,44.42,63.69Z"/>
    <path class="cls-1" d="M533.32,115.09v9c-7.38-5.64-16.61-9-27.34-9-40.25,0-56.06,31.85-56.06,63.69s15.81,63.56,56.06,63.56c10.73,0,19.97-3.22,27.34-9v9h30.92v-127.25h-30.92ZM505.98,211.54c-15.68,0-25.15-16.03-25.15-32.76s9.47-32.77,25.15-32.77c19.61,0,27.34,16.05,27.34,32.77s-8.64,32.76-27.34,32.76Z"/>
    <path class="cls-1" d="M609.01,131.02v-12.24h-30.92v120.21h30.92v-60.22c0-20.89,12.46-32.77,28.27-32.77l3.68.12v-31.04c-14.99,0-25.15,6.58-31.95,15.93Z"/>
    <path class="cls-1" d="M698.19,175.32v-18.13h21.23v-27.22h-21.23v-25.5h-30.92v25.5h-18.23v27.22h18.23v18.13c0,52.25,15.46,63.68,60.69,63.68v-30.92c-20.99,0-29.77-6.92-29.77-32.76Z"/>
  </g>
  <path class="cls-1" d="M426.86,284.39h-24.67c-1.72,0-3.12,1.39-3.12,3.11v.05c0,2.42-2.62,3.86-4.73,2.67-6.46-3.71-14.06-5.83-22.61-5.83-40.27,0-56.06,31.7-56.06,63.41s15.8,63.27,56.06,63.27c8.54,0,16.13-2.03,22.61-5.76.52-.3,1.06-.44,1.6-.44,1.64,0,3.12,1.28,3.12,3.09,0,1.71,1.4,3.11,3.12,3.11h24.67c1.72,0,3.12-1.39,3.12-3.11v-120.46c0-1.71-1.4-3.11-3.12-3.11ZM371.73,380.41c-15.7,0-25.15-15.96-25.15-32.61s9.45-32.63,25.15-32.63c19.61,0,27.34,15.96,27.34,32.63s-8.66,32.61-27.34,32.61Z"/>
  <path class="cls-1" d="M543.73,363.07c-6.11-27.57-67.49-19.3-68.18-36.76,0-6.2,5.32-11.14,14.89-11.14,8.35,0,14.19,1.75,17.77,11.14.57,1.53,2.21,2.39,3.78,1.92l25.16-7.48c1.64-.49,2.57-2.2,2.11-3.85-6.28-22.58-17.74-32.51-48.82-32.51-36.34,0-51.34,29.4-45.8,51.11,7.39,24.81,67.15,17.24,68.18,34,0,9.53-14.53,11.71-21.33,11.14-8.57-1.06-16.66-4.03-20.42-13.1-.62-1.5-2.31-2.22-3.86-1.76l-25.06,7.46c-1.65.49-2.58,2.22-2.11,3.88,8.2,28.19,28.37,34.31,51.46,34.31,37.48,0,57.11-19.64,52.25-48.35Z"/>
  <path class="cls-1" d="M654.73,363.07c-6.13-27.57-67.49-19.3-68.18-36.76,0-6.2,5.3-11.14,14.87-11.14,8.35,0,14.19,1.75,17.77,11.14.59,1.53,2.21,2.39,3.78,1.92l25.16-7.48c1.64-.49,2.58-2.2,2.11-3.85-6.28-22.58-17.74-32.51-48.82-32.51-36.34,0-51.34,29.4-45.79,51.11,7.38,24.81,67.14,17.24,68.18,34,0,9.53-14.55,11.71-21.35,11.14-8.57-1.06-16.66-4.03-20.42-13.1-.62-1.5-2.31-2.22-3.86-1.76l-25.06,7.46c-1.65.49-2.58,2.22-2.11,3.88,8.2,28.19,28.37,34.31,51.46,34.31,37.5,0,57.11-19.64,52.27-48.35Z"/>
  <path class="cls-2" d="M175.89,239.47h-3.88c.65-.02,1.31-.04,1.99-.04.64,0,1.26.02,1.89.04Z"/>
</svg>